<?xml version="1.0" encoding="utf-8"?>
<!-- Generator: Adobe Illustrator 18.1.0, SVG Export Plug-In . SVG Version: 6.00 Build 0)  -->
<svg version="1.1" id="Layer_1" xmlns="http://www.w3.org/2000/svg" xmlns:xlink="http://www.w3.org/1999/xlink" x="0px" y="0px"
	 viewBox="0 0 612 792" enable-background="new 0 0 612 792" xml:space="preserve">
<path opacity="0.13" fill="#FAFBFB" d="M478.3,398.5c0,100,0,199.9,0,299.9c0,50.1-34.8,84.9-85.1,84.9c-58.4,0-117,0-175.5,0
	c-47.5,0-82.1-34.5-82.1-82.2c0-201,0-402,0-603c0-42.1,25.1-74.8,63.9-83.4c6.6-1.5,13.2-1.9,20.1-1.9c57.4,0,114.8-0.1,172.2,0
	c51.1,0.1,86.4,35.6,86.6,86.8C478.3,199.2,478.3,298.8,478.3,398.5z M315.7,33.9c-2.5,0-4.8,0-7.2,0c-28.8,0-57.6,0-86.6,0
	c-40.3,0-65.1,24.6-65.3,64.7c-0.1,200.2-0.1,400.4,0,600.6c0,39.3,24.3,63.1,63.6,63.1c54.6,0,109.2,0,163.7,0c2.7,0,5.6,1,8.5-1.2
	c-9-7.1-9.1-16.8-8.1-26.8c1.1-9.7,2.6-19.4,3.7-29.1c0.8-6.8,3-13.8-3.3-19.5c-1.5-1.4-1.6-3.8-0.8-5.6c2.6-5.9,0.1-11.1-2.3-16
	c-4.1-8.6-9-16.8-13.5-25.1c-2.2-4-3.8-8.1-2.7-12.8c1.9-7.8-3-20.8-9.4-25c-56.3-36-97.1-86.2-130-143.4c-3.3-5.6-6.3-9.6-13.1-9
	c-4.9,0.4-7.4-2-8.7-7c-3.1-10.5-8.1-20.3-13.8-29.6c-15.8-25.7-19.1-53-11.2-82.1c1.2-4.5,3-8.3,6.4-11.5c3.7-3.3,9.4-6.3,6.6-12
	c-2.3-4.6-8.1-1.5-12.2-2c-4.6-0.7-11.3,0.8-13-3.8c-3-8.6-8.6-17.1-5.2-27.3c2.9-8.5,5.3-17.1,8.9-25.3c8.9-20.2,18.6-40,26.2-60.8
	c4.1-11.2,10.8-21.4,17.9-31.3c7.6-10.4,17.6-16.8,30.6-18.6c11.3-1.5,22.4-3.8,33.7-5.6c4-0.7,8.6-1.5,10-5.3
	c3-9.3,7.5-18.4,1.4-28.5c-3.4-5.7-5.9-15,0-18.4c6.4-3.7,5.7-7.8,5.9-12.6C296.9,52.6,301.6,41.1,315.7,33.9z M455.7,432.2
	C442,454,423.4,464.7,398,460.9c-24-3.6-43.7-24-45.9-47c-2.5-25.9,11.1-47.7,35.6-56c4.6-1.6,5.2-3.1,3.3-7.6
	c-8.3-19.8-19.8-38.2-24.2-59.8c-3.1-15.8-6.6-31.8-10.1-47.7c-0.4-2-0.1-6.7-3.6-5.2c-8.2,3.7-18,6.3-22.1,15.4
	c-6,13.5-11.1,27.4-16.4,41.4c-1,2.6-2.6,6.3,0,7.8c11.9,6.7,12.6,19.3,16,30.2c6.3,19.8,10.8,40,13.5,60.8
	c2,15.7,6.8,31.1,8.2,47.1c1.8,20.3,3.7,40.7,14.9,58.7c11.5,18.4,16.5,38.9,20.5,59.9c3.3,16.8,2.7,34.8,14.5,49.2
	c6.8,8.3,7.9,17.9,4.6,28.4c-3,9.6-5.6,19.4-2.9,29.6c4.4,16.9,8.1,34,12.4,50.8c4.2,16,6.3,31.3-8.6,44.2c4.9,0.3,8.2-1.1,11.5-2.6
	c25.9-11.6,37.6-32,37.6-59.9c-0.1-85.9,0-171.8-0.1-257.8C457.2,438.2,458.1,435.3,455.7,432.2z M457.3,383.8c0-5.9,0-11.6,0-17.5
	c0-89.3,0-178.5,0-267.8c0-38.1-26.2-64.5-64.2-64.7c-15.4-0.1-30.7-0.1-46.2,0c-1.5,0-3.8-1.4-4.8,1.5c1.8,1.1,3.4,1.9,5.2,3
	c18.6,11.7,22.5,24.6,13.8,44.8c-0.4,1.1-1.1,2-1.4,3c-0.4,1.2-1.2,3.1-0.7,4c4.1,6.4,0.7,12.3-3,16.1c-8.3,9-12.2,21.4-22.4,28.8
	c-3.1,2.2-4.4,6.1-0.7,8.3c8.3,5.1,15.7,12.2,23.6,17.1c26.4,16,39.7,38.2,39.2,68.4c-0.4,18.7,3.6,36.6,6.7,54.8
	c1,5.2,2.5,10.2,5.5,14.9c9,14.2,14.5,29.6,15,46.6c0.3,6.8,1.9,12.6,10.2,13.7c2.5,0.3,4,2.9,5.9,4.4
	C446,368.8,450.6,376.6,457.3,383.8z"/>
<path opacity="0.13" fill="#B1B3B6" d="M315.7,33.9c-14.1,7.2-18.8,18.7-19.4,32.9c-0.1,4.8,0.5,8.9-5.9,12.6
	c-5.9,3.4-3.4,12.7,0,18.4c6,10.1,1.6,19.4-1.4,28.5c-1.2,3.8-6,4.6-10,5.3c-11.2,1.9-22.4,4.2-33.7,5.6
	c-13.1,1.8-22.9,8.2-30.6,18.6c-7.2,9.7-13.8,19.9-17.9,31.3c-7.6,20.8-17.3,40.6-26.2,60.8c-3.7,8.2-6,16.8-8.9,25.3
	c-3.4,10.2,2.2,18.7,5.2,27.3c1.6,4.6,8.3,3.1,13,3.8c4.1,0.7,10-2.5,12.2,2c2.9,5.7-2.9,8.9-6.6,12c-3.4,3.1-5.2,6.8-6.4,11.5
	c-7.8,29.1-4.6,56.4,11.6,82.2c5.7,9.1,10.7,19.1,13.8,29.6c1.4,4.8,3.8,7.2,8.7,7c7-0.5,10,3.4,13.1,9
	c32.9,57.2,73.7,107.3,130,143.4c6.4,4.1,11.3,17.2,9.4,25c-1.2,4.8,0.5,8.7,2.7,12.8c4.5,8.3,9.4,16.5,13.5,25.1
	c2.3,4.9,4.9,10.1,2.3,16c-0.8,1.8-0.5,4.2,0.8,5.6c6.3,5.7,4.1,12.8,3.3,19.5c-1.1,9.7-2.6,19.4-3.7,29.1c-1.1,10-1,19.7,8.1,26.8
	c-3,2-5.9,1.2-8.5,1.2c-54.6,0-109.2,0-163.7,0c-39.3,0-63.6-23.8-63.6-63.1c-0.1-200.2-0.1-400.4,0-600.6c0-40.1,25-64.7,65.3-64.7
	c28.8,0,57.6,0,86.6,0C310.9,33.9,313.2,33.9,315.7,33.9z M206.5,674c0.5,0,1.1,0,1.5-0.1c3.7,11.7,7.2,23.4,10.9,35.1
	c3.7,11.9,3.7,11.6,16.5,11.7c5.5,0,7.2-1.6,7.1-7.1c-0.3-25.1-0.4-50.4,0-75.5c0.1-7.4-3.6-7.5-8.7-7.2c-4.8,0.3-10.1-1.5-9.6,7.1
	c0.7,12.4,0.1,24.9,0.1,37.4c-5.1-10.4-8.5-21.2-11.9-32c-4.1-13.1-4.1-12.8-17.8-12.6c-4.8,0.1-6.3,1.8-6.3,6.4
	c0.1,25.8,0.3,51.5-0.1,77.3c-0.1,8.3,5.3,6,9.6,6.1c4.2,0.1,8.9,1.4,8.6-6.3C206,700.8,206.5,687.4,206.5,674z M292.2,672.4
	c9.4-8.2,12.4-19.5,8.5-29.9c-4-10.4-12.8-11.5-22.1-11.6c-7.5-0.1-15.2,0.1-22.7-0.1c-4.2-0.1-6,1.1-5.9,5.7
	c0.1,26.4,0.1,52.6,0,78.9c0,4,1,5.5,5.1,5.3c7.5-0.3,15.2,0,22.7-0.1c14.3-0.1,21.4-4.6,24.9-15.6
	C306.8,691.4,303.4,680.2,292.2,672.4z M336.3,630.7c-14.5,0-14.5,0-17.2,13.9c-0.4,2.2-0.8,4.4-1.2,6.6c-4.1,20.5-8.3,41-12.3,61.6
	c-0.4,2.5-3.4,6,1.5,7.6c11.7,3.8,18.8-0.7,20.1-12.4c0-0.3,0.1-0.5,0-0.8c-0.7-5.9,2.7-6.7,7.6-6.7c5.1,0,7.2,0.8,7.6,6.7
	c1,13.5,1.4,13.5,14.9,13.4c0.8,0,1.6-0.1,2.5,0c4.4,0.4,5.7-0.8,4.9-5.6c-4.8-25.3-9.3-50.5-13.4-75.8c-1.1-6.6-3.3-9.6-10.1-8.3
	C339.7,631,338,630.7,336.3,630.7z"/>
<path opacity="0.13" fill="#8D9092" d="M455.7,432.2c2.5,3.1,1.5,6,1.5,8.6c0,85.9,0,171.8,0.1,257.8c0,28-11.7,48.3-37.6,59.9
	c-3.3,1.5-6.6,2.9-11.5,2.6c14.7-13,12.7-28.3,8.6-44.2c-4.4-16.8-8.1-33.9-12.4-50.8c-2.6-10.4-0.1-20.2,2.9-29.6
	c3.4-10.7,2.2-20.1-4.6-28.4c-11.7-14.5-11.2-32.5-14.5-49.2c-4.1-21-9.1-41.5-20.5-59.9c-11.2-18-13.1-38.4-14.9-58.7
	c-1.4-16-6.1-31.3-8.2-47.1c-2.7-20.8-7.2-41-13.5-60.8c-3.4-10.9-4.1-23.5-16-30.2c-2.6-1.5-1-5.2,0-7.8
	c5.3-13.8,10.4-27.9,16.4-41.4c4.1-9,13.9-11.6,22.1-15.4c3.3-1.5,3,3.1,3.6,5.2c3.4,15.8,6.8,31.7,10.1,47.7
	c4.2,21.4,15.8,40,24.2,59.8c1.9,4.5,1.4,6-3.3,7.6c-24.6,8.5-38.2,30-35.6,56c2.2,22.9,21.8,43.4,45.9,47
	C423.4,464.7,442,454,455.7,432.2z"/>
<path opacity="0.13" fill="#8D9092" d="M457.3,383.8c-6.7-7.2-11.3-15-18.4-20.9c-1.9-1.5-3.4-4.1-5.9-4.4
	c-8.3-1.1-10-6.7-10.2-13.7c-0.7-16.9-6-32.4-15-46.6c-2.9-4.6-4.5-9.6-5.5-14.9c-3.1-18.2-7-36-6.7-54.8
	c0.5-30.2-12.8-52.4-39.2-68.4c-7.9-4.8-15.2-11.9-23.6-17.1c-3.6-2.2-2.5-6.1,0.7-8.3c10.2-7.4,14.1-19.8,22.4-28.8
	c3.6-3.8,7.1-9.7,3-16.1c-0.5-0.8,0.3-2.6,0.7-4c0.3-1.1,1-2,1.4-3c8.7-20.2,4.6-33-13.8-44.8c-1.6-1.1-3.4-2-5.2-3
	c1-2.9,3.3-1.5,4.8-1.5c15.4-0.1,30.7-0.1,46.2,0c38,0.1,64.2,26.5,64.2,64.7c0.1,89.3,0,178.5,0,267.8
	C457.3,372.2,457.3,378,457.3,383.8z"/>
<path opacity="0.13" fill="#FAFBFB" d="M206.5,674c0,13.4-0.4,26.9,0.1,40.3c0.4,7.6-4.2,6.4-8.6,6.3c-4.2-0.1-9.7,2.2-9.6-6.1
	c0.4-25.8,0.3-51.5,0.1-77.3c0-4.6,1.4-6.3,6.3-6.4c13.7-0.3,13.5-0.5,17.8,12.6c3.4,10.8,6.8,21.6,11.9,32c0-12.4,0.5-25-0.1-37.4
	c-0.5-8.6,4.9-6.8,9.6-7.1c5.2-0.3,8.9-0.1,8.7,7.2c-0.4,25.1-0.3,50.4,0,75.5c0,5.5-1.6,7.2-7.1,7.1c-12.8-0.1-12.8,0.3-16.5-11.7
	c-3.7-11.7-7.2-23.4-10.9-35.1C207.5,673.9,207,673.9,206.5,674z"/>
<path opacity="0.13" fill="#FAFBFB" d="M292.2,672.4c11.2,7.8,14.6,19,10.5,32.6c-3.3,10.8-10.5,15.4-24.9,15.6
	c-7.5,0-15.2-0.3-22.7,0.1c-4.2,0.1-5.2-1.4-5.1-5.3c0.1-26.4,0.1-52.6,0-78.9c0-4.5,1.8-5.7,5.9-5.7c7.5,0.3,15.2,0,22.7,0.1
	c9.3,0.1,18.2,1.2,22.1,11.6C304.6,652.9,301.5,664.2,292.2,672.4z M272.1,693.5c0,2.2,0,4.5,0,6.7c0.1,5.9,5.1,8.5,10,5.2
	c4.6-3.1,4.1-8.3,4-13c0-4.1-0.4-8.6-4.8-10.9c-5.3-2.7-9-0.7-9.1,5.3C272,689,272.1,691.2,272.1,693.5z M271.2,656.4
	c3.7,2.7-3.6,10.2,5.5,10.4c6.8,0,7.5-5.3,7.4-10.7s0.3-11.5-7.6-11.1C267.6,645.5,274.5,652.6,271.2,656.4z"/>
<path opacity="0.13" fill="#FAFBFB" d="M336.3,630.7c1.6,0,3.4,0.3,5.1,0c6.7-1.2,9,1.8,10.1,8.3c4.1,25.4,8.6,50.7,13.4,75.8
	c1,4.9-0.5,6-4.9,5.6c-0.8-0.1-1.6,0-2.5,0c-13.5,0.1-13.9,0.1-14.9-13.4c-0.4-5.7-2.7-6.7-7.6-6.7c-4.9,0-8.3,0.7-7.6,6.7
	c0,0.3,0,0.5,0,0.8c-1.1,11.7-8.2,16.2-20.1,12.4c-4.9-1.6-2-5.2-1.5-7.6c4-20.6,8.1-41.1,12.3-61.6c0.4-2.2,0.8-4.4,1.2-6.6
	C321.8,630.7,321.8,630.7,336.3,630.7z M336.6,653.3c-0.5,0-1.1,0-1.6,0c-1.5,9.8-3,19.7-4.5,29.5c-0.7,4.1,2,3.7,4.6,3.8
	c3.1,0.3,4.6-0.7,4.2-4.2C338.4,672.7,337.5,663,336.6,653.3z"/>
<path opacity="0.13" fill="#B1B3B6" d="M272.1,693.5c0-2.2,0-4.5,0-6.7c0.1-5.9,3.8-8.1,9.1-5.3c4.4,2.3,4.8,6.7,4.8,10.9
	c0.1,4.6,0.5,9.8-4,13c-4.9,3.3-9.7,0.7-10-5.2C272,698.1,272.1,695.7,272.1,693.5z"/>
<path opacity="0.13" fill="#B1B3B6" d="M271.2,656.4c3.3-3.7-3.4-10.8,5.2-11.3c7.9-0.4,7.5,5.7,7.6,11.1s-0.7,10.7-7.4,10.7
	C267.6,666.6,274.9,659,271.2,656.4z"/>
<path opacity="0.13" fill="#B1B3B6" d="M336.6,653.3c1,9.7,1.8,19.4,2.7,29.1c0.4,3.6-1.1,4.5-4.2,4.2c-2.6-0.1-5.2,0.3-4.6-3.8
	c1.5-9.8,3-19.7,4.5-29.5C335.5,653.3,336,653.3,336.6,653.3z"/>
</svg>
